<svg width="523" height="528" viewBox="0 0 523 528" fill="none" xmlns="http://www.w3.org/2000/svg">
<g filter="url(#filter0_d_1_2)">
<path d="M135.223 279.872L146.512 272.417H245.131V279.872H135.223ZM135.223 279.872V273.482L206.152 174.863H222.766V309.053L223.831 310.118H240.871V317.573H185.491V310.118H202.531L203.596 309.053V193.181H202.957L146.512 271.352V272.417L135.223 279.872ZM271.468 279.872L282.757 272.417H381.376V279.872H271.468ZM271.468 279.872V273.482L342.397 174.863H359.011V309.053L360.076 310.118H377.116V317.573H321.736V310.118H338.776L339.841 309.053V193.181H339.202L282.757 271.352V272.417L271.468 279.872Z" fill="white"/>
<path d="M261.073 0L268.144 -7.07107H254.002L261.073 0ZM500.075 253.144C503.98 257.049 510.312 257.049 514.217 253.144C518.123 249.239 518.123 242.907 514.217 239.002L500.075 253.144ZM254.002 499.217C257.907 503.123 264.239 503.123 268.144 499.217C272.049 495.312 272.049 488.98 268.144 485.075L254.002 499.217ZM15 246.073L7.92893 239.002V253.144L15 246.073ZM241.698 5.23259C237.793 9.13783 237.793 15.4695 241.698 19.3747C245.604 23.28 251.935 23.28 255.841 19.3747L241.698 5.23259ZM231.233 43.982C235.138 40.0768 235.138 33.7451 231.233 29.8399C227.328 25.9347 220.996 25.9347 217.091 29.8399L231.233 43.982ZM192.484 54.4472C188.579 58.3525 188.579 64.6841 192.484 68.5894C196.389 72.4946 202.721 72.4946 206.626 68.5894L192.484 54.4472ZM182.019 93.1967C185.924 89.2914 185.924 82.9598 182.019 79.0545C178.113 75.1493 171.782 75.1493 167.876 79.0545L182.019 93.1967ZM143.269 103.662C139.364 107.567 139.364 113.899 143.269 117.804C147.174 121.709 153.506 121.709 157.411 117.804L143.269 103.662ZM132.804 142.411C136.709 138.506 136.709 132.174 132.804 128.269C128.899 124.364 122.567 124.364 118.662 128.269L132.804 142.411ZM94.0545 152.876C90.1493 156.782 90.1493 163.113 94.0545 167.019C97.9598 170.924 104.291 170.924 108.197 167.019L94.0545 152.876ZM83.5894 191.626C87.4946 187.721 87.4946 181.389 83.5894 177.484C79.6841 173.579 73.3525 173.579 69.4472 177.484L83.5894 191.626ZM44.8399 202.091C40.9347 205.996 40.9347 212.328 44.8399 216.233C48.7452 220.138 55.0768 220.138 58.982 216.233L44.8399 202.091ZM34.3747 240.841C38.28 236.935 38.28 230.604 34.3747 226.698C30.4695 222.793 24.1378 222.793 20.2326 226.698L34.3747 240.841ZM20.2326 265.448C24.1378 269.353 30.4695 269.353 34.3747 265.448C38.28 261.543 38.28 255.211 34.3747 251.306L20.2326 265.448ZM58.982 275.913C55.0768 272.008 48.7451 272.008 44.8399 275.913C40.9347 279.818 40.9347 286.15 44.8399 290.055L58.982 275.913ZM69.4472 314.663C73.3525 318.568 79.6841 318.568 83.5894 314.663C87.4946 310.757 87.4946 304.426 83.5894 300.52L69.4472 314.663ZM108.197 325.128C104.291 321.222 97.9598 321.222 94.0545 325.128C90.1493 329.033 90.1493 335.365 94.0545 339.27L108.197 325.128ZM118.662 363.877C122.567 367.782 128.899 367.782 132.804 363.877C136.709 359.972 136.709 353.64 132.804 349.735L118.662 363.877ZM157.411 374.342C153.506 370.437 147.174 370.437 143.269 374.342C139.364 378.248 139.364 384.579 143.269 388.484L157.411 374.342ZM167.876 413.092C171.782 416.997 178.113 416.997 182.019 413.092C185.924 409.187 185.924 402.855 182.019 398.95L167.876 413.092ZM206.626 423.557C202.721 419.652 196.389 419.652 192.484 423.557C188.579 427.462 188.579 433.794 192.484 437.699L206.626 423.557ZM217.091 462.306C220.996 466.212 227.328 466.212 231.233 462.306C235.138 458.401 235.138 452.07 231.233 448.164L217.091 462.306ZM255.841 472.772C251.935 468.866 245.604 468.866 241.698 472.772C237.793 476.677 237.793 483.008 241.698 486.914L255.841 472.772ZM501.914 226.698C498.008 222.793 491.677 222.793 487.772 226.698C483.866 230.604 483.866 236.935 487.772 240.841L501.914 226.698ZM463.164 216.233C467.07 220.138 473.401 220.138 477.306 216.233C481.212 212.328 481.212 205.996 477.306 202.091L463.164 216.233ZM452.699 177.484C448.794 173.579 442.462 173.579 438.557 177.484C434.652 181.389 434.652 187.721 438.557 191.626L452.699 177.484ZM413.95 167.019C417.855 170.924 424.187 170.924 428.092 167.019C431.997 163.113 431.997 156.782 428.092 152.876L413.95 167.019ZM403.484 128.269C399.579 124.364 393.248 124.364 389.342 128.269C385.437 132.174 385.437 138.506 389.342 142.411L403.484 128.269ZM364.735 117.804C368.64 121.709 374.972 121.709 378.877 117.804C382.782 113.899 382.782 107.567 378.877 103.662L364.735 117.804ZM354.27 79.0545C350.365 75.1493 344.033 75.1493 340.128 79.0545C336.222 82.9598 336.222 89.2914 340.128 93.1967L354.27 79.0545ZM315.52 68.5894C319.426 72.4946 325.757 72.4946 329.663 68.5894C333.568 64.6841 333.568 58.3525 329.663 54.4472L315.52 68.5894ZM305.055 29.8399C301.15 25.9347 294.818 25.9347 290.913 29.8399C287.008 33.7452 287.008 40.0768 290.913 43.982L305.055 29.8399ZM266.306 19.3747C270.211 23.28 276.543 23.28 280.448 19.3747C284.353 15.4695 284.353 9.13785 280.448 5.23261L266.306 19.3747ZM254.002 -7.07107L241.698 5.23259L255.841 19.3747L268.144 7.07107L254.002 -7.07107ZM217.091 29.8399L192.484 54.4472L206.626 68.5894L231.233 43.982L217.091 29.8399ZM167.876 79.0545L143.269 103.662L157.411 117.804L182.019 93.1967L167.876 79.0545ZM118.662 128.269L94.0545 152.876L108.197 167.019L132.804 142.411L118.662 128.269ZM69.4472 177.484L44.8399 202.091L58.982 216.233L83.5894 191.626L69.4472 177.484ZM20.2326 226.698L7.92893 239.002L22.0711 253.144L34.3747 240.841L20.2326 226.698ZM7.92893 253.144L20.2326 265.448L34.3747 251.306L22.0711 239.002L7.92893 253.144ZM44.8399 290.055L69.4472 314.663L83.5894 300.52L58.982 275.913L44.8399 290.055ZM94.0545 339.27L118.662 363.877L132.804 349.735L108.197 325.128L94.0545 339.27ZM143.269 388.484L167.876 413.092L182.019 398.95L157.411 374.342L143.269 388.484ZM192.484 437.699L217.091 462.306L231.233 448.164L206.626 423.557L192.484 437.699ZM241.698 486.914L254.002 499.217L268.144 485.075L255.841 472.772L241.698 486.914ZM514.217 239.002L501.914 226.698L487.772 240.841L500.075 253.144L514.217 239.002ZM477.306 202.091L452.699 177.484L438.557 191.626L463.164 216.233L477.306 202.091ZM428.092 152.876L403.484 128.269L389.342 142.411L413.95 167.019L428.092 152.876ZM378.877 103.662L354.27 79.0545L340.128 93.1967L364.735 117.804L378.877 103.662ZM329.663 54.4472L305.055 29.8399L290.913 43.982L315.52 68.5894L329.663 54.4472ZM280.448 5.23261L268.144 -7.07107L254.002 7.07107L266.306 19.3747L280.448 5.23261ZM261.073 0L275.215 -14.1421H246.931L261.073 0ZM493.004 260.215C500.815 268.026 513.478 268.026 521.288 260.215C529.099 252.405 529.099 239.742 521.288 231.931L493.004 260.215ZM246.931 506.288C254.742 514.099 267.405 514.099 275.215 506.288C283.026 498.478 283.026 485.815 275.215 478.004L246.931 506.288ZM15 246.073L0.85786 231.931V260.215L15 246.073ZM234.627 -1.83848C226.817 5.97201 226.817 18.6353 234.627 26.4458C242.438 34.2563 255.101 34.2563 262.912 26.4458L234.627 -1.83848ZM238.304 51.0531C246.115 43.2426 246.115 30.5793 238.304 22.7688C230.494 14.9584 217.831 14.9584 210.02 22.7688L238.304 51.0531ZM185.413 47.3762C177.602 55.1866 177.602 67.8499 185.413 75.6604C193.223 83.4709 205.887 83.4709 213.697 75.6604L185.413 47.3762ZM189.09 100.268C196.9 92.4573 196.9 79.794 189.09 71.9835C181.279 64.173 168.616 64.173 160.805 71.9835L189.09 100.268ZM136.198 96.5908C128.388 104.401 128.388 117.065 136.198 124.875C144.009 132.686 156.672 132.686 164.482 124.875L136.198 96.5908ZM139.875 149.482C147.686 141.672 147.686 129.009 139.875 121.198C132.065 113.388 119.401 113.388 111.591 121.198L139.875 149.482ZM86.9835 145.805C79.173 153.616 79.173 166.279 86.9835 174.09C94.7939 181.9 107.457 181.9 115.268 174.09L86.9835 145.805ZM90.6604 198.697C98.4709 190.887 98.4709 178.223 90.6604 170.413C82.8499 162.602 70.1866 162.602 62.3761 170.413L90.6604 198.697ZM37.7688 195.02C29.9584 202.831 29.9584 215.494 37.7688 223.304C45.5793 231.115 58.2426 231.115 66.0531 223.304L37.7688 195.02ZM41.4458 247.912C49.2563 240.101 49.2563 227.438 41.4458 219.627C33.6353 211.817 20.972 211.817 13.1615 219.627L41.4458 247.912ZM13.1615 272.519C20.972 280.329 33.6353 280.329 41.4458 272.519C49.2563 264.708 49.2563 252.045 41.4458 244.235L13.1615 272.519ZM66.0531 268.842C58.2426 261.032 45.5793 261.032 37.7688 268.842C29.9583 276.652 29.9583 289.316 37.7688 297.126L66.0531 268.842ZM62.3761 321.734C70.1866 329.544 82.8499 329.544 90.6604 321.734C98.4709 313.923 98.4709 301.26 90.6604 293.449L62.3761 321.734ZM115.268 318.057C107.457 310.246 94.7939 310.246 86.9835 318.057C79.173 325.867 79.173 338.53 86.9835 346.341L115.268 318.057ZM111.591 370.948C119.401 378.759 132.065 378.759 139.875 370.948C147.686 363.138 147.686 350.474 139.875 342.664L111.591 370.948ZM164.482 367.271C156.672 359.461 144.009 359.461 136.198 367.271C128.388 375.082 128.388 387.745 136.198 395.556L164.482 367.271ZM160.805 420.163C168.616 427.973 181.279 427.973 189.09 420.163C196.9 412.352 196.9 399.689 189.09 391.879L160.805 420.163ZM213.697 416.486C205.887 408.675 193.223 408.675 185.413 416.486C177.602 424.296 177.602 436.96 185.413 444.77L213.697 416.486ZM210.02 469.377C217.831 477.188 230.494 477.188 238.304 469.377C246.115 461.567 246.115 448.904 238.304 441.093L210.02 469.377ZM262.912 465.701C255.101 457.89 242.438 457.89 234.627 465.701C226.817 473.511 226.817 486.174 234.627 493.985L262.912 465.701ZM508.985 219.627C501.174 211.817 488.511 211.817 480.701 219.627C472.89 227.438 472.89 240.101 480.701 247.912L508.985 219.627ZM456.093 223.304C463.904 231.115 476.567 231.115 484.377 223.304C492.188 215.494 492.188 202.831 484.377 195.02L456.093 223.304ZM459.77 170.413C451.96 162.602 439.296 162.602 431.486 170.413C423.675 178.223 423.675 190.887 431.486 198.697L459.77 170.413ZM406.879 174.09C414.689 181.9 427.352 181.9 435.163 174.09C442.973 166.279 442.973 153.616 435.163 145.805L406.879 174.09ZM410.556 121.198C402.745 113.388 390.082 113.388 382.271 121.198C374.461 129.009 374.461 141.672 382.271 149.482L410.556 121.198ZM357.664 124.875C365.474 132.686 378.138 132.686 385.948 124.875C393.759 117.065 393.759 104.401 385.948 96.5908L357.664 124.875ZM361.341 71.9835C353.53 64.173 340.867 64.173 333.057 71.9835C325.246 79.7939 325.246 92.4572 333.057 100.268L361.341 71.9835ZM308.449 75.6604C316.26 83.4709 328.923 83.4709 336.734 75.6604C344.544 67.8499 344.544 55.1866 336.734 47.3762L308.449 75.6604ZM312.126 22.7688C304.316 14.9584 291.652 14.9584 283.842 22.7688C276.032 30.5793 276.032 43.2426 283.842 51.0531L312.126 22.7688ZM259.235 26.4458C267.045 34.2563 279.708 34.2563 287.519 26.4458C295.329 18.6353 295.329 5.97203 287.519 -1.83846L259.235 26.4458ZM246.931 -14.1421L234.627 -1.83848L262.912 26.4458L275.215 14.1421L246.931 -14.1421ZM210.02 22.7688L185.413 47.3762L213.697 75.6604L238.304 51.0531L210.02 22.7688ZM160.805 71.9835L136.198 96.5908L164.482 124.875L189.09 100.268L160.805 71.9835ZM111.591 121.198L86.9835 145.805L115.268 174.09L139.875 149.482L111.591 121.198ZM62.3761 170.413L37.7688 195.02L66.0531 223.304L90.6604 198.697L62.3761 170.413ZM13.1615 219.627L0.85786 231.931L29.1421 260.215L41.4458 247.912L13.1615 219.627ZM0.85786 260.215L13.1615 272.519L41.4458 244.235L29.1421 231.931L0.85786 260.215ZM37.7688 297.126L62.3761 321.734L90.6604 293.449L66.0531 268.842L37.7688 297.126ZM86.9835 346.341L111.591 370.948L139.875 342.664L115.268 318.057L86.9835 346.341ZM136.198 395.556L160.805 420.163L189.09 391.879L164.482 367.271L136.198 395.556ZM185.413 444.77L210.02 469.377L238.304 441.093L213.697 416.486L185.413 444.77ZM234.627 493.985L246.931 506.288L275.215 478.004L262.912 465.701L234.627 493.985ZM521.288 231.931L508.985 219.627L480.701 247.912L493.004 260.215L521.288 231.931ZM484.377 195.02L459.77 170.413L431.486 198.697L456.093 223.304L484.377 195.02ZM435.163 145.805L410.556 121.198L382.271 149.482L406.879 174.09L435.163 145.805ZM385.948 96.5908L361.341 71.9835L333.057 100.268L357.664 124.875L385.948 96.5908ZM336.734 47.3762L312.126 22.7688L283.842 51.0531L308.449 75.6604L336.734 47.3762ZM287.519 -1.83846L275.215 -14.1421L246.931 14.1421L259.235 26.4458L287.519 -1.83846Z" fill="white" mask="url(#path-1-inside-1_1_2)"/>
</g>
<defs>
<filter id="filter0_d_1_2" x="-7.62939e-06" y="0" width="522.146" height="527.146" filterUnits="userSpaceOnUse" color-interpolation-filters="sRGB">
<feFlood flood-opacity="0" result="BackgroundImageFix"/>
<feColorMatrix in="SourceAlpha" type="matrix" values="0 0 0 0 0 0 0 0 0 0 0 0 0 0 0 0 0 0 127 0" result="hardAlpha"/>
<feOffset dy="20"/>
<feGaussianBlur stdDeviation="7.5"/>
<feColorMatrix type="matrix" values="0 0 0 0 1 0 0 0 0 0.6 0 0 0 0 0 0 0 0 0.64 0"/>
<feBlend mode="normal" in2="BackgroundImageFix" result="effect1_dropShadow_1_2"/>
<feBlend mode="normal" in="SourceGraphic" in2="effect1_dropShadow_1_2" result="shape"/>
</filter>
</defs>
</svg>
